<svg width="25" height="9" viewBox="0 0 25 9" fill="none" xmlns="http://www.w3.org/2000/svg">
    <path
        d="M4.125 8.23333C2.91389 8.23333 1.94444 7.89444 1.21667 7.21667C0.488889 6.53889 0.125 5.63333 0.125 4.5C0.125 3.36667 0.488889 2.46111 1.21667 1.78333C1.94444 1.10556 2.91389 0.766666 4.125 0.766666C4.50833 0.766666 4.86944 0.8 5.20833 0.866666C5.55278 0.933333 5.88889 1.05 6.21667 1.21667C6.55 1.37778 6.83611 1.58333 7.075 1.83333C7.31944 2.08333 7.52222 2.40556 7.68333 2.8C7.84444 3.18889 7.94167 3.63333 7.975 4.13333H5.375C5.25278 3.46111 4.83611 3.125 4.125 3.125C3.76389 3.125 3.46111 3.25 3.21667 3.5C2.97222 3.74444 2.85 4.07778 2.85 4.5C2.85 4.92222 2.97222 5.25833 3.21667 5.50833C3.46111 5.75278 3.76389 5.875 4.125 5.875C4.83611 5.875 5.25278 5.53056 5.375 4.84167H7.975C7.93611 5.46389 7.8 6.00278 7.56667 6.45833C7.33889 6.91389 7.03889 7.26667 6.66667 7.51667C6.3 7.76667 5.90556 7.94722 5.48333 8.05833C5.06667 8.175 4.61389 8.23333 4.125 8.23333ZM8.3457 8V1H11.479L13.1874 4.16667H13.429V1H16.0957V8H13.0374L11.2624 4.83333H11.0124V8H8.3457ZM23.256 7.41667C22.6393 7.96111 21.6838 8.23333 20.3893 8.23333C19.0949 8.23333 18.1393 7.96389 17.5227 7.425C16.906 6.88056 16.5977 6.025 16.5977 4.85833V1H19.356V4.79167C19.356 5.55833 19.7004 5.94167 20.3893 5.94167C21.0949 5.94167 21.4477 5.55833 21.4477 4.79167V1H24.181V4.83333C24.181 6.01111 23.8727 6.87222 23.256 7.41667Z"
        fill="#5d737e"
    />
</svg>
    